<?xml version="1.0" encoding="UTF-8" standalone="no"?>
<svg width="37px" height="36px" viewBox="0 0 37 36" version="1.1" xmlns="http://www.w3.org/2000/svg" xmlns:xlink="http://www.w3.org/1999/xlink">
    <!-- Generator: Sketch 44.1 (41455) - http://www.bohemiancoding.com/sketch -->
    <title>Facebook</title>
    <desc>Created with Sketch.</desc>
    <defs></defs>
    <g id="Portfoilo" stroke="none" stroke-width="1" fill="none" fill-rule="evenodd">
        <g id="Artboard" transform="translate(-665.000000, -1882.000000)" fill="#FFFFFF">
            <g id="screen" transform="translate(0.000000, 2.000000)">
                <g id="Contact-me" transform="translate(1.000000, 1799.000000)">
                    <g id="sns-icon" transform="translate(485.000000, 81.000000)">
                        <path d="M215.709999,33.8273753 C215.709999,34.9187068 214.816365,35.8032802 213.713856,35.8032802 L204.496718,35.8032802 L204.496718,21.9378112 L209.198394,21.9378112 L209.902858,16.5347937 L204.496718,16.5347937 L204.496718,13.0852499 C204.496718,11.5209106 204.936146,10.453961 207.202251,10.453961 L210.093013,10.4529857 L210.093013,5.6205035 C209.5925,5.55418487 207.877156,5.40691851 205.881013,5.40691851 C201.71335,5.40691851 198.860027,7.92507573 198.860027,12.5498246 L198.860027,16.5347937 L194.146528,16.5347937 L194.146528,21.9378112 L198.860027,21.9378112 L198.860027,35.8032802 L181.536144,35.8032802 C180.433635,35.8032802 179.540001,34.9187068 179.540001,33.8273753 L179.540001,1.97590493 C179.540001,0.884573429 180.433635,0 181.536144,0 L213.713856,0 C214.816365,0 215.709999,0.884573429 215.709999,1.97590493 L215.709999,33.8273753" id="Facebook"></path>
                    </g>
                </g>
            </g>
        </g>
    </g>
</svg>