<?xml version="1.0" encoding="UTF-8" standalone="no"?>
<svg width="37px" height="36px" viewBox="0 0 37 36" version="1.1" xmlns="http://www.w3.org/2000/svg" xmlns:xlink="http://www.w3.org/1999/xlink">
    <!-- Generator: Sketch 44.1 (41455) - http://www.bohemiancoding.com/sketch -->
    <title>Fill 34</title>
    <desc>Created with Sketch.</desc>
    <defs></defs>
    <g id="Portfoilo" stroke="none" stroke-width="1" fill="none" fill-rule="evenodd">
        <g id="Artboard" transform="translate(-578.000000, -1882.000000)" fill="#FFFFFF">
            <g id="screen" transform="translate(0.000000, 2.000000)">
                <g id="Contact-me" transform="translate(1.000000, 1799.000000)">
                    <g id="sns-icon" transform="translate(485.000000, 81.000000)">
                        <path d="M110.353852,0 C100.218451,0 92,8.21730386 92,18.3561467 C92,26.4644678 97.2587074,33.344151 104.553672,35.7715997 C105.471422,35.9402363 105.806401,35.3735257 105.806401,34.8871182 C105.806401,34.451187 105.790341,33.2971164 105.781163,31.7656211 C100.675032,32.8749514 99.5978226,29.304904 99.5978226,29.304904 C98.7638173,27.1849015 97.5604177,26.6204853 97.5604177,26.6204853 C95.8935543,25.4813281 97.6866083,25.5042719 97.6866083,25.5042719 C99.5278442,25.633904 100.497218,27.395984 100.497218,27.395984 C102.135401,30.2008574 104.793435,29.390943 105.83967,28.9205962 C106.006012,27.7344043 106.480947,26.9256371 107.005212,26.4667622 C102.929255,26.0032984 98.6445098,24.4293572 98.6445098,17.3959508 C98.6445098,15.3918143 99.3592076,13.7536306 100.533928,12.4699278 C100.344642,12.0053169 99.7148357,10.1399901 100.712889,7.61273606 C100.712889,7.61273606 102.254709,7.11944545 105.760514,9.49412351 C107.225472,9.08687196 108.794825,8.88381978 110.356147,8.87578947 C111.915175,8.88381978 113.485674,9.08687196 114.95178,9.49412351 C118.45529,7.11944545 119.993669,7.61273606 119.993669,7.61273606 C120.995163,10.1399901 120.365357,12.0053169 120.176071,12.4699278 C121.353086,13.7536306 122.063195,15.3918143 122.063195,17.3959508 C122.063195,24.446565 117.771567,25.9987097 113.68299,26.4529959 C114.341476,27.0197065 114.928836,28.1393615 114.928836,29.8521124 C114.928836,32.3059464 114.905892,34.2848448 114.905892,34.8871182 C114.905892,35.3781144 115.236282,35.9494138 116.167798,35.7693054 C123.45588,33.3372679 128.709999,26.4621734 128.709999,18.3561467 C128.709999,8.21730386 120.491548,0 110.353852,0" id="Fill-34"></path>
                    </g>
                </g>
            </g>
        </g>
    </g>
</svg>