<?xml version="1.0" encoding="UTF-8" standalone="no"?>
<svg width="42px" height="35px" viewBox="0 0 42 35" version="1.1" xmlns="http://www.w3.org/2000/svg" xmlns:xlink="http://www.w3.org/1999/xlink">
    <!-- Generator: Sketch 44.1 (41455) - http://www.bohemiancoding.com/sketch -->
    <title>Twitter</title>
    <desc>Created with Sketch.</desc>
    <defs></defs>
    <g id="Portfoilo" stroke="none" stroke-width="1" fill="none" fill-rule="evenodd">
        <g id="Artboard" transform="translate(-486.000000, -1882.000000)" fill="#FFFFFF">
            <g id="screen" transform="translate(0.000000, 2.000000)">
                <g id="Contact-me" transform="translate(1.000000, 1799.000000)">
                    <g id="sns-icon" transform="translate(485.000000, 81.000000)">
                        <path d="M40.8416314,0.648148148 C39.1752851,1.65849673 37.3340062,2.39411124 35.3660131,2.78883122 C33.7983468,1.07202358 31.5578624,0 29.0774061,0 C24.3228246,0 20.4642125,3.9561707 20.4642125,8.83522363 C20.4642125,9.52822632 20.5382225,10.2010445 20.6862425,10.8480713 C13.5252147,10.4791426 7.17717545,6.96478918 2.92496476,1.61364219 C2.18262207,2.92339485 1.75874664,4.44172113 1.75874664,6.05984878 C1.75874664,9.12341407 3.27931565,11.8292644 5.59268871,13.4137511 C4.18201333,13.3711393 2.85095476,12.9685698 1.68697937,12.3114507 L1.68697937,12.420223 C1.68697937,16.7027105 4.65747149,20.2742535 8.60242855,21.083878 C7.88027041,21.2902089 7.11774318,21.3944957 6.33166731,21.3944957 C5.77659234,21.3944957 5.23497373,21.3417916 4.71017557,21.2375048 C5.80686915,24.7462514 8.98705626,27.301839 12.758202,27.3702422 C9.81013713,29.7419262 6.09281687,31.1548443 2.05702935,31.1548443 C1.36178393,31.1548443 0.674388056,31.1144752 0.00156990901,31.033737 C3.81420607,33.5366205 8.34563629,35 13.2101115,35 C29.0605857,35 37.725362,21.5380302 37.725362,9.86239267 C37.725362,9.47776496 37.7186339,9.09313725 37.7040561,8.71635909 C39.3872229,7.47052416 40.849481,5.91519287 42,4.14343842 C40.4570037,4.84653338 38.7951429,5.32199154 37.0525439,5.53392926 C38.8321479,4.44172113 40.1979687,2.71033577 40.8416314,0.648148148" id="Twitter"></path>
                    </g>
                </g>
            </g>
        </g>
    </g>
</svg>